<svg xmlns="http://www.w3.org/2000/svg" xmlns:xlink="http://www.w3.org/1999/xlink" width="500" zoomAndPan="magnify" viewBox="0 0 375 374.999991" height="500" preserveAspectRatio="xMidYMid meet" version="1.0"><defs><g/></defs><rect x="-37.5" width="450" fill="#ffffff" y="-37.499999" height="449.999989" fill-opacity="1"/><rect x="-37.5" width="450" fill="#e4e2dd" y="-37.499999" height="449.999989" fill-opacity="1"/><g fill="#000000" fill-opacity="1"><g transform="translate(105.269076, 193.365616)"><g><path d="M 2.609375 0 L 2.609375 -22.359375 L 10.328125 -22.359375 L 10.328125 -20.015625 L 10.421875 -20.015625 C 12.421875 -22.015625 14.554688 -23.015625 16.828125 -23.015625 C 18.453125 -23.015625 19.976562 -22.679688 21.40625 -22.015625 C 22.832031 -21.347656 23.90625 -20.316406 24.625 -18.921875 C 26.894531 -21.648438 29.367188 -23.015625 32.046875 -23.015625 C 34.421875 -23.015625 36.46875 -22.34375 38.1875 -21 C 39.90625 -19.664062 40.765625 -17.578125 40.765625 -14.734375 L 40.765625 0 L 33.046875 0 L 33.046875 -12.640625 C 33.046875 -13.828125 32.71875 -14.820312 32.0625 -15.625 C 31.40625 -16.425781 30.425781 -16.828125 29.125 -16.828125 C 27.988281 -16.828125 27.125 -16.484375 26.53125 -15.796875 C 25.9375 -15.117188 25.609375 -14.300781 25.546875 -13.34375 L 25.546875 0 L 17.828125 0 L 17.828125 -12.640625 C 17.828125 -13.828125 17.5 -14.820312 16.84375 -15.625 C 16.195312 -16.425781 15.21875 -16.828125 13.90625 -16.828125 C 12.71875 -16.828125 11.820312 -16.457031 11.21875 -15.71875 C 10.625 -14.976562 10.328125 -14.097656 10.328125 -13.078125 L 10.328125 0 Z M 2.609375 0 "/></g></g></g><g fill="#000000" fill-opacity="1"><g transform="translate(144.502933, 193.365616)"><g><path d="M 19.578125 -22.359375 L 28.46875 -22.359375 L 10.890625 11.328125 L 2 11.328125 L 9.71875 -3.484375 L -0.875 -22.359375 L 8.015625 -22.359375 L 14.25 -10.890625 Z M 19.578125 -22.359375 "/></g></g></g><g fill="#000000" fill-opacity="1"><g transform="translate(168.391787, 193.365616)"><g><path d="M 2.609375 -15.953125 L 16.65625 -15.953125 L 16.65625 -9.28125 L 2.609375 -9.28125 Z M 2.609375 -15.953125 "/></g></g></g><g fill="#000000" fill-opacity="1"><g transform="translate(183.954229, 193.365616)"><g><path d="M 14.515625 -16.703125 C 13.066406 -16.703125 11.816406 -16.160156 10.765625 -15.078125 C 9.722656 -14.003906 9.203125 -12.710938 9.203125 -11.203125 C 9.203125 -9.660156 9.722656 -8.351562 10.765625 -7.28125 C 11.816406 -6.207031 13.066406 -5.671875 14.515625 -5.671875 C 15.210938 -5.671875 15.875 -5.753906 16.5 -5.921875 C 17.125 -6.097656 17.582031 -6.273438 17.875 -6.453125 L 18.265625 -6.71875 L 20.875 -1.34375 C 20.675781 -1.207031 20.394531 -1.03125 20.03125 -0.8125 C 19.664062 -0.59375 18.835938 -0.296875 17.546875 0.078125 C 16.253906 0.460938 14.867188 0.65625 13.390625 0.65625 C 10.097656 0.65625 7.207031 -0.5 4.71875 -2.8125 C 2.238281 -5.125 1 -7.890625 1 -11.109375 C 1 -14.367188 2.238281 -17.164062 4.71875 -19.5 C 7.207031 -21.84375 10.097656 -23.015625 13.390625 -23.015625 C 14.867188 -23.015625 16.234375 -22.835938 17.484375 -22.484375 C 18.734375 -22.140625 19.617188 -21.796875 20.140625 -21.453125 L 20.875 -20.921875 L 18.265625 -15.65625 C 17.304688 -16.351562 16.054688 -16.703125 14.515625 -16.703125 Z M 14.515625 -16.703125 "/></g></g></g><g fill="#000000" fill-opacity="1"><g transform="translate(201.652767, 193.365616)"><g><path d="M 4.71875 -2.65625 C 2.238281 -4.863281 1 -7.695312 1 -11.15625 C 1 -14.613281 2.289062 -17.453125 4.875 -19.671875 C 7.46875 -21.898438 10.664062 -23.015625 14.46875 -23.015625 C 18.21875 -23.015625 21.378906 -21.894531 23.953125 -19.65625 C 26.523438 -17.414062 27.8125 -14.582031 27.8125 -11.15625 C 27.8125 -7.726562 26.550781 -4.898438 24.03125 -2.671875 C 21.519531 -0.453125 18.332031 0.65625 14.46875 0.65625 C 10.457031 0.65625 7.207031 -0.445312 4.71875 -2.65625 Z M 10.703125 -14.953125 C 9.703125 -13.960938 9.203125 -12.695312 9.203125 -11.15625 C 9.203125 -9.613281 9.679688 -8.351562 10.640625 -7.375 C 11.597656 -6.40625 12.859375 -5.921875 14.421875 -5.921875 C 15.941406 -5.921875 17.1875 -6.414062 18.15625 -7.40625 C 19.125 -8.394531 19.609375 -9.644531 19.609375 -11.15625 C 19.609375 -12.695312 19.109375 -13.960938 18.109375 -14.953125 C 17.109375 -15.941406 15.878906 -16.4375 14.421875 -16.4375 C 12.941406 -16.4375 11.703125 -15.941406 10.703125 -14.953125 Z M 10.703125 -14.953125 "/></g></g></g><g fill="#000000" fill-opacity="1"><g transform="translate(226.762247, 193.365616)"><g><path d="M 2.609375 0 L 2.609375 -22.359375 L 10.328125 -22.359375 L 10.328125 -20.015625 L 10.421875 -20.015625 C 12.421875 -22.015625 14.554688 -23.015625 16.828125 -23.015625 C 18.453125 -23.015625 19.976562 -22.679688 21.40625 -22.015625 C 22.832031 -21.347656 23.90625 -20.316406 24.625 -18.921875 C 26.894531 -21.648438 29.367188 -23.015625 32.046875 -23.015625 C 34.421875 -23.015625 36.46875 -22.34375 38.1875 -21 C 39.90625 -19.664062 40.765625 -17.578125 40.765625 -14.734375 L 40.765625 0 L 33.046875 0 L 33.046875 -12.640625 C 33.046875 -13.828125 32.71875 -14.820312 32.0625 -15.625 C 31.40625 -16.425781 30.425781 -16.828125 29.125 -16.828125 C 27.988281 -16.828125 27.125 -16.484375 26.53125 -15.796875 C 25.9375 -15.117188 25.609375 -14.300781 25.546875 -13.34375 L 25.546875 0 L 17.828125 0 L 17.828125 -12.640625 C 17.828125 -13.828125 17.5 -14.820312 16.84375 -15.625 C 16.195312 -16.425781 15.21875 -16.828125 13.90625 -16.828125 C 12.71875 -16.828125 11.820312 -16.457031 11.21875 -15.71875 C 10.625 -14.976562 10.328125 -14.097656 10.328125 -13.078125 L 10.328125 0 Z M 2.609375 0 "/></g></g></g><path stroke-linecap="butt" transform="matrix(0.75, 0, 0, 0.75, 90.574247, 228.073139)" fill="none" stroke-linejoin="miter" d="M -0.0000370697 5.001439 L 84.43226 5.001439 " stroke="#292929" stroke-width="10" stroke-opacity="1" stroke-miterlimit="4"/><path stroke-linecap="butt" transform="matrix(0, 0.75, -0.75, 0, 98.070394, 171.479446)" fill="none" stroke-linejoin="miter" d="M 0.00136321 5.000109 L 82.46491 5.000109 " stroke="#292929" stroke-width="10" stroke-opacity="1" stroke-miterlimit="4"/><path stroke-linecap="butt" transform="matrix(-0.75, 0, 0, -0.75, 283.487477, 146.919146)" fill="none" stroke-linejoin="miter" d="M -0.00107222 5.00157 L 84.431225 5.00157 " stroke="#292929" stroke-width="10" stroke-opacity="1" stroke-miterlimit="4"/><path stroke-linecap="butt" transform="matrix(0, -0.75, 0.75, 0, 275.991344, 203.512837)" fill="none" stroke-linejoin="miter" d="M 0.00149105 5.001125 L 82.465038 5.001125 " stroke="#292929" stroke-width="10" stroke-opacity="1" stroke-miterlimit="4"/></svg>